# xmcd
#
# Track frame offsets: 
#        183
#        16745
#        40595
#        65015
#
# Disc length: 1119 seconds
#
# Revision: 7
# Processed by: cddbd v1.5.2PL0 Copyright (c) Steve Scherf et al.
# Submitted via: ExactAudioCopy v0.99pb3
#
DISCID=27045d04
DTITLE=Haddaway - I Miss You (MX)
DYEAR=1993
DGENRE=Rhythmic Soul
TTITLE0=I Miss You (Radio Edit)
TTITLE1=I Miss You (12'' Mix)
TTITLE2=I Miss You (Club Mix)
TTITLE3=I Miss You (Album Mix)
EXTD=
EXTT0=
EXTT1=
EXTT2=
EXTT3=
PLAYORDER=
